<svg width="30" height="30" viewBox="0 0 30 30" fill="none" xmlns="http://www.w3.org/2000/svg">
<path d="M15 -6.55671e-07C23.2843 -2.93554e-07 30 6.71573 30 15C30 23.2843 23.2843 30 15 30C6.71573 30 8.89561e-07 23.2843 1.25168e-06 15C1.61379e-06 6.71573 6.71573 -1.01779e-06 15 -6.55671e-07ZM15 3.13433C8.44677 3.13433 3.13433 8.44677 3.13433 15C3.13433 21.5532 8.44677 26.8657 15 26.8657C21.5532 26.8657 26.8657 21.5532 26.8657 15C26.8657 8.44677 21.5532 3.13433 15 3.13433ZM15.8209 15L12.4739 11.5559C11.8619 10.9439 11.8619 9.95162 12.4739 9.33961C13.086 8.72759 14.0782 8.72759 14.6902 9.33961L19.1679 13.8172C19.7799 14.4292 19.7799 15.4215 19.1679 16.0335L14.6902 20.5111C14.0782 21.1232 13.086 21.1232 12.4739 20.5111C11.8619 19.8991 11.8619 18.9068 12.4739 18.2948L15.8209 15Z" fill="#B3CBD9"/>
</svg>
