<svg width="30" height="30" viewBox="0 0 30 30" fill="none" xmlns="http://www.w3.org/2000/svg">
<path d="M15 30C6.71573 30 8.00843e-08 23.2843 1.78873e-07 15C2.77662e-07 6.71573 6.71573 1.98743e-06 15 2.08622e-06C23.2843 2.18501e-06 30 6.71573 30 15C30 23.2843 23.2843 30 15 30ZM15 26.8657C21.5532 26.8657 26.8657 21.5532 26.8657 15C26.8657 8.44677 21.5532 3.13433 15 3.13433C8.44677 3.13433 3.13433 8.44677 3.13433 15C3.13433 21.5532 8.44677 26.8657 15 26.8657ZM14.1791 15L17.5261 18.4441C18.1381 19.0561 18.1381 20.0484 17.5261 20.6604C16.914 21.2724 15.9218 21.2724 15.3098 20.6604L10.8321 16.1828C10.2201 15.5708 10.2201 14.5785 10.8321 13.9665L15.3098 9.48886C15.9218 8.87685 16.914 8.87685 17.5261 9.48886C18.1381 10.1009 18.1381 11.0932 17.5261 11.7052L14.1791 15Z" fill="#B3CBD9"/>
</svg>
